<?xml version="1.0" standalone="no"?><!-- Created with ZXing.Net (http://zxingnet.codeplex.com/) --><!DOCTYPE svg PUBLIC "-//W3C//DTD SVG 1.1//EN" "http://www.w3.org/Graphics/SVG/1.1/DTD/svg11.dtd"><svg xmlns="http://www.w3.org/2000/svg" version="1.2" baseProfile="tiny" shape-rendering="crispEdges" viewBox="0 0 1024 1024" viewport-fill="rgb(255,255,255)" viewport-fill-opacity="1" fill="rgb(0,0,0)" fill-opacity="1" style="background-color:rgb(255,255,255);background-color:rgba(255, 255, 255, 1);"><rect x="68" y="68" width="24" height="168"/><rect x="68" y="260" width="24" height="72"/><rect x="68" y="380" width="48" height="24"/><rect x="68" y="428" width="24" height="48"/><rect x="68" y="524" width="48" height="24"/><rect x="68" y="644" width="24" height="120"/><rect x="68" y="788" width="24" height="168"/><rect x="92" y="68" width="144" height="24"/><rect x="92" y="212" width="144" height="24"/><rect x="92" y="284" width="24" height="48"/><rect x="92" y="356" width="24" height="48"/><rect x="92" y="452" width="24" height="24"/><rect x="92" y="500" width="24" height="48"/><rect x="92" y="572" width="24" height="24"/><rect x="92" y="620" width="72" height="24"/><rect x="92" y="788" width="144" height="24"/><rect x="92" y="932" width="144" height="24"/><rect x="116" y="116" width="72" height="72"/><rect x="116" y="260" width="120" height="24"/><rect x="116" y="308" width="24" height="48"/><rect x="116" y="476" width="96" height="24"/><rect x="116" y="692" width="72" height="24"/><rect x="116" y="740" width="24" height="24"/><rect x="116" y="836" width="72" height="72"/><rect x="140" y="284" width="72" height="48"/><rect x="140" y="356" width="24" height="24"/><rect x="140" y="404" width="24" height="48"/><rect x="140" y="500" width="24" height="240"/><rect x="164" y="548" width="72" height="24"/><rect x="164" y="596" width="24" height="24"/><rect x="164" y="644" width="24" height="72"/><rect x="164" y="740" width="72" height="24"/><rect x="188" y="332" width="24" height="24"/><rect x="188" y="380" width="24" height="216"/><rect x="188" y="620" width="24" height="48"/><rect x="212" y="92" width="24" height="144"/><rect x="212" y="308" width="168" height="24"/><rect x="212" y="356" width="24" height="24"/><rect x="212" y="404" width="24" height="24"/><rect x="212" y="452" width="48" height="24"/><rect x="212" y="500" width="72" height="24"/><rect x="212" y="596" width="120" height="24"/><rect x="212" y="644" width="96" height="24"/><rect x="212" y="692" width="48" height="24"/><rect x="212" y="812" width="24" height="144"/><rect x="236" y="332" width="24" height="24"/><rect x="236" y="428" width="24" height="48"/><rect x="260" y="116" width="24" height="144"/><rect x="260" y="356" width="24" height="72"/><rect x="260" y="524" width="24" height="96"/><rect x="260" y="716" width="48" height="72"/><rect x="260" y="812" width="24" height="96"/><rect x="260" y="932" width="24" height="24"/><rect x="284" y="140" width="24" height="24"/><rect x="284" y="188" width="96" height="24"/><rect x="284" y="236" width="48" height="24"/><rect x="284" y="356" width="24" height="24"/><rect x="284" y="452" width="24" height="24"/><rect x="284" y="572" width="48" height="48"/><rect x="284" y="668" width="24" height="24"/><rect x="284" y="788" width="24" height="24"/><rect x="284" y="860" width="24" height="72"/><rect x="308" y="116" width="24" height="24"/><rect x="308" y="164" width="24" height="96"/><rect x="308" y="404" width="48" height="24"/><rect x="308" y="476" width="24" height="48"/><rect x="308" y="548" width="24" height="96"/><rect x="308" y="692" width="24" height="24"/><rect x="308" y="740" width="72" height="24"/><rect x="308" y="812" width="24" height="24"/><rect x="332" y="68" width="24" height="48"/><rect x="332" y="260" width="48" height="72"/><rect x="332" y="428" width="72" height="24"/><rect x="332" y="524" width="48" height="72"/><rect x="332" y="620" width="24" height="24"/><rect x="332" y="668" width="72" height="24"/><rect x="332" y="716" width="24" height="96"/><rect x="332" y="932" width="24" height="24"/><rect x="356" y="92" width="72" height="24"/><rect x="356" y="212" width="24" height="24"/><rect x="356" y="356" width="72" height="48"/><rect x="356" y="452" width="24" height="144"/><rect x="356" y="788" width="24" height="96"/><rect x="356" y="908" width="48" height="24"/><rect x="380" y="140" width="24" height="48"/><rect x="380" y="260" width="72" height="48"/><rect x="380" y="332" width="24" height="120"/><rect x="380" y="644" width="24" height="48"/><rect x="380" y="716" width="72" height="24"/><rect x="380" y="764" width="48" height="24"/><rect x="380" y="836" width="72" height="24"/><rect x="380" y="884" width="24" height="72"/><rect x="404" y="68" width="24" height="48"/><rect x="404" y="140" width="24" height="24"/><rect x="404" y="188" width="24" height="120"/><rect x="404" y="404" width="48" height="24"/><rect x="404" y="452" width="48" height="24"/><rect x="404" y="500" width="24" height="48"/><rect x="404" y="596" width="48" height="48"/><rect x="404" y="692" width="48" height="48"/><rect x="404" y="788" width="48" height="24"/><rect x="428" y="68" width="48" height="24"/><rect x="428" y="116" width="24" height="24"/><rect x="428" y="236" width="24" height="144"/><rect x="428" y="476" width="48" height="24"/><rect x="428" y="644" width="24" height="120"/><rect x="428" y="860" width="72" height="24"/><rect x="452" y="140" width="72" height="24"/><rect x="452" y="188" width="24" height="96"/><rect x="452" y="308" width="24" height="24"/><rect x="452" y="356" width="96" height="24"/><rect x="452" y="524" width="24" height="48"/><rect x="452" y="644" width="24" height="24"/><rect x="452" y="692" width="24" height="24"/><rect x="452" y="740" width="72" height="24"/><rect x="452" y="908" width="24" height="48"/><rect x="476" y="92" width="48" height="24"/><rect x="476" y="164" width="24" height="48"/><rect x="476" y="236" width="48" height="24"/><rect x="476" y="500" width="48" height="24"/><rect x="476" y="548" width="24" height="96"/><rect x="476" y="884" width="24" height="24"/><rect x="476" y="932" width="72" height="24"/><rect x="500" y="116" width="24" height="48"/><rect x="500" y="212" width="24" height="48"/><rect x="500" y="284" width="24" height="96"/><rect x="500" y="404" width="24" height="24"/><rect x="500" y="452" width="24" height="24"/><rect x="500" y="524" width="24" height="48"/><rect x="500" y="620" width="24" height="24"/><rect x="500" y="668" width="72" height="24"/><rect x="500" y="764" width="24" height="48"/><rect x="500" y="836" width="72" height="24"/><rect x="524" y="164" width="24" height="24"/><rect x="524" y="260" width="24" height="24"/><rect x="524" y="308" width="24" height="96"/><rect x="524" y="548" width="24" height="48"/><rect x="524" y="644" width="48" height="48"/><rect x="524" y="764" width="48" height="24"/><rect x="524" y="860" width="24" height="24"/><rect x="548" y="92" width="72" height="24"/><rect x="548" y="140" width="24" height="24"/><rect x="548" y="188" width="24" height="72"/><rect x="548" y="284" width="96" height="24"/><rect x="548" y="332" width="72" height="24"/><rect x="548" y="404" width="24" height="48"/><rect x="548" y="572" width="24" height="24"/><rect x="548" y="620" width="24" height="72"/><rect x="548" y="812" width="24" height="48"/><rect x="548" y="884" width="48" height="24"/><rect x="572" y="68" width="24" height="72"/><rect x="572" y="164" width="24" height="48"/><rect x="572" y="236" width="24" height="24"/><rect x="572" y="308" width="48" height="48"/><rect x="572" y="380" width="96" height="24"/><rect x="572" y="428" width="24" height="24"/><rect x="572" y="476" width="24" height="24"/><rect x="572" y="524" width="24" height="24"/><rect x="572" y="596" width="24" height="48"/><rect x="572" y="692" width="24" height="48"/><rect x="572" y="812" width="24" height="24"/><rect x="572" y="908" width="48" height="24"/><rect x="596" y="68" width="24" height="48"/><rect x="596" y="140" width="24" height="24"/><rect x="596" y="188" width="24" height="48"/><rect x="596" y="356" width="24" height="72"/><rect x="596" y="452" width="96" height="24"/><rect x="596" y="500" width="24" height="24"/><rect x="596" y="548" width="24" height="24"/><rect x="596" y="644" width="48" height="24"/><rect x="596" y="692" width="24" height="24"/><rect x="596" y="740" width="24" height="24"/><rect x="596" y="788" width="24" height="24"/><rect x="596" y="860" width="48" height="24"/><rect x="596" y="932" width="24" height="24"/><rect x="620" y="68" width="24" height="24"/><rect x="620" y="164" width="24" height="24"/><rect x="620" y="236" width="24" height="72"/><rect x="620" y="356" width="48" height="48"/><rect x="620" y="428" width="24" height="72"/><rect x="620" y="524" width="48" height="24"/><rect x="620" y="572" width="24" height="24"/><rect x="620" y="668" width="48" height="24"/><rect x="620" y="716" width="48" height="24"/><rect x="620" y="764" width="24" height="24"/><rect x="620" y="812" width="24" height="72"/><rect x="644" y="140" width="96" height="24"/><rect x="644" y="212" width="24" height="24"/><rect x="644" y="548" width="96" height="24"/><rect x="644" y="620" width="24" height="24"/><rect x="644" y="692" width="24" height="72"/><rect x="644" y="788" width="24" height="24"/><rect x="644" y="908" width="24" height="48"/><rect x="668" y="260" width="24" height="24"/><rect x="668" y="308" width="24" height="24"/><rect x="668" y="356" width="72" height="24"/><rect x="668" y="644" width="24" height="24"/><rect x="668" y="692" width="24" height="24"/><rect x="668" y="740" width="24" height="48"/><rect x="668" y="836" width="24" height="72"/><rect x="668" y="932" width="24" height="24"/><rect x="692" y="68" width="24" height="48"/><rect x="692" y="212" width="24" height="24"/><rect x="692" y="284" width="24" height="24"/><rect x="692" y="476" width="24" height="24"/><rect x="692" y="524" width="48" height="48"/><rect x="692" y="596" width="48" height="24"/><rect x="692" y="668" width="24" height="24"/><rect x="692" y="716" width="24" height="48"/><rect x="692" y="836" width="120" height="48"/><rect x="692" y="908" width="72" height="24"/><rect x="716" y="92" width="48" height="24"/><rect x="716" y="188" width="48" height="24"/><rect x="716" y="236" width="48" height="48"/><rect x="716" y="308" width="24" height="24"/><rect x="716" y="404" width="48" height="72"/><rect x="716" y="500" width="24" height="72"/><rect x="716" y="644" width="96" height="24"/><rect x="716" y="692" width="144" height="48"/><rect x="716" y="764" width="48" height="24"/><rect x="740" y="116" width="24" height="24"/><rect x="740" y="164" width="24" height="120"/><rect x="740" y="332" width="48" height="24"/><rect x="740" y="380" width="24" height="168"/><rect x="740" y="572" width="24" height="24"/><rect x="740" y="620" width="24" height="312"/><rect x="764" y="284" width="24" height="120"/><rect x="764" y="452" width="48" height="24"/><rect x="764" y="548" width="48" height="24"/><rect x="764" y="596" width="24" height="168"/><rect x="764" y="932" width="48" height="24"/><rect x="788" y="68" width="24" height="168"/><rect x="788" y="260" width="120" height="24"/><rect x="788" y="356" width="24" height="24"/><rect x="788" y="428" width="24" height="48"/><rect x="788" y="500" width="24" height="72"/><rect x="788" y="596" width="24" height="72"/><rect x="788" y="740" width="72" height="24"/><rect x="788" y="788" width="24" height="24"/><rect x="788" y="908" width="24" height="48"/><rect x="812" y="68" width="144" height="24"/><rect x="812" y="212" width="144" height="24"/><rect x="812" y="308" width="24" height="48"/><rect x="812" y="380" width="24" height="72"/><rect x="812" y="476" width="24" height="48"/><rect x="812" y="596" width="48" height="48"/><rect x="812" y="668" width="24" height="96"/><rect x="812" y="836" width="48" height="24"/><rect x="836" y="116" width="72" height="72"/><rect x="836" y="332" width="48" height="48"/><rect x="836" y="404" width="24" height="72"/><rect x="836" y="500" width="24" height="24"/><rect x="836" y="548" width="24" height="24"/><rect x="836" y="644" width="24" height="24"/><rect x="836" y="764" width="24" height="120"/><rect x="836" y="908" width="48" height="48"/><rect x="860" y="308" width="24" height="72"/><rect x="860" y="404" width="24" height="24"/><rect x="860" y="524" width="24" height="24"/><rect x="860" y="572" width="24" height="48"/><rect x="860" y="668" width="24" height="24"/><rect x="860" y="716" width="24" height="24"/><rect x="860" y="764" width="24" height="24"/><rect x="860" y="812" width="24" height="24"/><rect x="860" y="860" width="24" height="96"/><rect x="884" y="308" width="72" height="24"/><rect x="884" y="356" width="72" height="24"/><rect x="884" y="452" width="24" height="48"/><rect x="884" y="548" width="24" height="24"/><rect x="884" y="644" width="48" height="24"/><rect x="884" y="740" width="24" height="24"/><rect x="884" y="788" width="24" height="24"/><rect x="884" y="836" width="72" height="24"/><rect x="884" y="884" width="72" height="24"/><rect x="884" y="932" width="72" height="24"/><rect x="908" y="284" width="24" height="48"/><rect x="908" y="380" width="24" height="24"/><rect x="908" y="476" width="24" height="48"/><rect x="908" y="572" width="24" height="24"/><rect x="908" y="620" width="24" height="48"/><rect x="908" y="692" width="48" height="24"/><rect x="908" y="812" width="48" height="48"/><rect x="932" y="92" width="24" height="144"/><rect x="932" y="332" width="24" height="48"/><rect x="932" y="404" width="24" height="72"/><rect x="932" y="500" width="24" height="48"/><rect x="932" y="596" width="24" height="48"/><rect x="932" y="788" width="24" height="168"/></svg>