<?xml version="1.0" standalone="no"?><!-- Created with ZXing.Net (http://zxingnet.codeplex.com/) --><!DOCTYPE svg PUBLIC "-//W3C//DTD SVG 1.1//EN" "http://www.w3.org/Graphics/SVG/1.1/DTD/svg11.dtd"><svg xmlns="http://www.w3.org/2000/svg" version="1.2" baseProfile="tiny" shape-rendering="crispEdges" viewBox="0 0 1024 1024" viewport-fill="rgb(255,255,255)" viewport-fill-opacity="1" fill="rgb(0,0,0)" fill-opacity="1" style="background-color:rgb(255,255,255);background-color:rgba(255, 255, 255, 1);"><rect x="68" y="68" width="24" height="168"/><rect x="68" y="260" width="24" height="24"/><rect x="68" y="404" width="24" height="24"/><rect x="68" y="452" width="24" height="24"/><rect x="68" y="524" width="24" height="48"/><rect x="68" y="620" width="24" height="144"/><rect x="68" y="788" width="24" height="168"/><rect x="92" y="68" width="144" height="24"/><rect x="92" y="212" width="144" height="24"/><rect x="92" y="332" width="24" height="24"/><rect x="92" y="500" width="48" height="24"/><rect x="92" y="596" width="24" height="24"/><rect x="92" y="668" width="24" height="48"/><rect x="92" y="788" width="144" height="24"/><rect x="92" y="932" width="144" height="24"/><rect x="116" y="116" width="72" height="72"/><rect x="116" y="284" width="24" height="48"/><rect x="116" y="356" width="48" height="48"/><rect x="116" y="476" width="24" height="96"/><rect x="116" y="644" width="24" height="48"/><rect x="116" y="716" width="24" height="48"/><rect x="116" y="836" width="72" height="72"/><rect x="140" y="260" width="192" height="24"/><rect x="140" y="308" width="48" height="24"/><rect x="140" y="428" width="24" height="24"/><rect x="140" y="548" width="24" height="48"/><rect x="140" y="620" width="24" height="48"/><rect x="164" y="332" width="48" height="24"/><rect x="164" y="404" width="24" height="24"/><rect x="164" y="500" width="24" height="24"/><rect x="164" y="572" width="24" height="24"/><rect x="164" y="620" width="48" height="24"/><rect x="164" y="668" width="24" height="72"/><rect x="188" y="284" width="24" height="24"/><rect x="188" y="356" width="24" height="48"/><rect x="188" y="452" width="24" height="48"/><rect x="188" y="548" width="48" height="24"/><rect x="188" y="596" width="24" height="48"/><rect x="188" y="716" width="24" height="48"/><rect x="212" y="92" width="24" height="144"/><rect x="212" y="308" width="24" height="24"/><rect x="212" y="356" width="24" height="24"/><rect x="212" y="404" width="24" height="24"/><rect x="212" y="452" width="96" height="24"/><rect x="212" y="500" width="24" height="24"/><rect x="212" y="596" width="24" height="24"/><rect x="212" y="644" width="24" height="24"/><rect x="212" y="692" width="24" height="24"/><rect x="212" y="740" width="48" height="24"/><rect x="212" y="812" width="24" height="144"/><rect x="236" y="284" width="24" height="24"/><rect x="236" y="332" width="24" height="24"/><rect x="236" y="380" width="24" height="24"/><rect x="236" y="572" width="24" height="24"/><rect x="236" y="716" width="24" height="48"/><rect x="260" y="68" width="24" height="72"/><rect x="260" y="164" width="48" height="24"/><rect x="260" y="212" width="24" height="24"/><rect x="260" y="308" width="96" height="24"/><rect x="260" y="500" width="24" height="48"/><rect x="260" y="596" width="24" height="24"/><rect x="260" y="644" width="48" height="24"/><rect x="260" y="692" width="24" height="24"/><rect x="260" y="764" width="24" height="120"/><rect x="260" y="932" width="24" height="24"/><rect x="284" y="68" width="144" height="24"/><rect x="284" y="140" width="24" height="72"/><rect x="284" y="284" width="24" height="96"/><rect x="284" y="404" width="24" height="96"/><rect x="284" y="548" width="48" height="48"/><rect x="284" y="620" width="24" height="72"/><rect x="284" y="740" width="24" height="72"/><rect x="284" y="836" width="24" height="72"/><rect x="308" y="188" width="24" height="144"/><rect x="308" y="404" width="24" height="48"/><rect x="308" y="596" width="48" height="24"/><rect x="308" y="668" width="48" height="24"/><rect x="308" y="764" width="24" height="24"/><rect x="308" y="812" width="48" height="24"/><rect x="308" y="860" width="24" height="24"/><rect x="308" y="932" width="120" height="24"/><rect x="332" y="92" width="24" height="120"/><rect x="332" y="284" width="24" height="48"/><rect x="332" y="524" width="24" height="24"/><rect x="332" y="572" width="24" height="72"/><rect x="332" y="692" width="120" height="24"/><rect x="332" y="740" width="24" height="24"/><rect x="332" y="788" width="24" height="48"/><rect x="332" y="908" width="72" height="48"/><rect x="356" y="92" width="24" height="48"/><rect x="356" y="164" width="120" height="24"/><rect x="356" y="212" width="24" height="24"/><rect x="356" y="260" width="24" height="48"/><rect x="356" y="404" width="24" height="24"/><rect x="356" y="500" width="48" height="24"/><rect x="356" y="572" width="24" height="24"/><rect x="356" y="620" width="72" height="48"/><rect x="356" y="716" width="24" height="24"/><rect x="356" y="764" width="24" height="24"/><rect x="356" y="884" width="24" height="72"/><rect x="380" y="140" width="48" height="48"/><rect x="380" y="236" width="24" height="48"/><rect x="380" y="332" width="48" height="48"/><rect x="380" y="452" width="48" height="24"/><rect x="380" y="548" width="48" height="24"/><rect x="380" y="596" width="24" height="120"/><rect x="380" y="788" width="24" height="48"/><rect x="380" y="860" width="24" height="24"/><rect x="404" y="116" width="24" height="120"/><rect x="404" y="284" width="24" height="96"/><rect x="404" y="668" width="24" height="48"/><rect x="404" y="740" width="48" height="48"/><rect x="428" y="92" width="24" height="24"/><rect x="428" y="188" width="48" height="24"/><rect x="428" y="308" width="72" height="24"/><rect x="428" y="356" width="24" height="72"/><rect x="428" y="524" width="48" height="24"/><rect x="428" y="572" width="24" height="48"/><rect x="428" y="644" width="24" height="24"/><rect x="428" y="788" width="24" height="72"/><rect x="428" y="908" width="24" height="24"/><rect x="452" y="116" width="24" height="120"/><rect x="452" y="284" width="24" height="120"/><rect x="452" y="428" width="24" height="24"/><rect x="452" y="500" width="24" height="72"/><rect x="452" y="716" width="24" height="48"/><rect x="452" y="836" width="24" height="24"/><rect x="452" y="932" width="24" height="24"/><rect x="476" y="68" width="24" height="24"/><rect x="476" y="140" width="48" height="24"/><rect x="476" y="236" width="48" height="24"/><rect x="476" y="284" width="24" height="72"/><rect x="476" y="452" width="24" height="48"/><rect x="476" y="548" width="24" height="48"/><rect x="476" y="644" width="24" height="24"/><rect x="476" y="764" width="72" height="48"/><rect x="476" y="860" width="24" height="24"/><rect x="476" y="908" width="48" height="24"/><rect x="500" y="92" width="48" height="24"/><rect x="500" y="164" width="48" height="24"/><rect x="500" y="212" width="24" height="48"/><rect x="500" y="284" width="24" height="24"/><rect x="500" y="380" width="24" height="48"/><rect x="500" y="452" width="24" height="24"/><rect x="500" y="524" width="72" height="24"/><rect x="500" y="620" width="48" height="24"/><rect x="500" y="668" width="48" height="24"/><rect x="500" y="836" width="24" height="24"/><rect x="524" y="68" width="24" height="72"/><rect x="524" y="260" width="24" height="24"/><rect x="524" y="308" width="48" height="48"/><rect x="524" y="404" width="48" height="24"/><rect x="524" y="500" width="24" height="96"/><rect x="524" y="716" width="24" height="96"/><rect x="524" y="932" width="48" height="24"/><rect x="548" y="68" width="96" height="24"/><rect x="548" y="140" width="48" height="24"/><rect x="548" y="212" width="24" height="24"/><rect x="548" y="428" width="72" height="24"/><rect x="548" y="596" width="48" height="24"/><rect x="548" y="644" width="120" height="24"/><rect x="548" y="740" width="24" height="48"/><rect x="548" y="836" width="24" height="48"/><rect x="572" y="116" width="24" height="72"/><rect x="572" y="260" width="24" height="48"/><rect x="572" y="380" width="24" height="24"/><rect x="572" y="452" width="48" height="24"/><rect x="572" y="500" width="48" height="24"/><rect x="572" y="764" width="48" height="24"/><rect x="572" y="812" width="24" height="48"/><rect x="572" y="884" width="72" height="24"/><rect x="596" y="164" width="24" height="120"/><rect x="596" y="332" width="72" height="24"/><rect x="596" y="476" width="24" height="72"/><rect x="596" y="668" width="24" height="120"/><rect x="596" y="860" width="48" height="96"/><rect x="620" y="92" width="24" height="72"/><rect x="620" y="188" width="72" height="24"/><rect x="620" y="236" width="72" height="24"/><rect x="620" y="308" width="24" height="96"/><rect x="620" y="476" width="24" height="24"/><rect x="620" y="524" width="24" height="144"/><rect x="620" y="716" width="48" height="48"/><rect x="620" y="788" width="72" height="24"/><rect x="620" y="836" width="24" height="120"/><rect x="644" y="92" width="24" height="24"/><rect x="644" y="140" width="48" height="24"/><rect x="644" y="212" width="24" height="48"/><rect x="644" y="284" width="120" height="24"/><rect x="644" y="356" width="24" height="24"/><rect x="644" y="452" width="48" height="24"/><rect x="644" y="500" width="48" height="24"/><rect x="644" y="548" width="24" height="24"/><rect x="644" y="668" width="24" height="24"/><rect x="644" y="932" width="24" height="24"/><rect x="668" y="68" width="24" height="24"/><rect x="668" y="116" width="24" height="48"/><rect x="668" y="308" width="24" height="24"/><rect x="668" y="404" width="96" height="24"/><rect x="668" y="476" width="24" height="72"/><rect x="668" y="572" width="72" height="24"/><rect x="668" y="740" width="24" height="24"/><rect x="668" y="812" width="96" height="24"/><rect x="668" y="884" width="120" height="24"/><rect x="692" y="92" width="24" height="48"/><rect x="692" y="164" width="24" height="24"/><rect x="692" y="212" width="24" height="24"/><rect x="692" y="260" width="24" height="48"/><rect x="692" y="332" width="48" height="24"/><rect x="692" y="380" width="48" height="72"/><rect x="692" y="596" width="24" height="48"/><rect x="692" y="668" width="48" height="48"/><rect x="692" y="836" width="24" height="96"/><rect x="716" y="116" width="24" height="48"/><rect x="716" y="236" width="48" height="24"/><rect x="716" y="308" width="24" height="240"/><rect x="716" y="596" width="48" height="24"/><rect x="716" y="644" width="24" height="72"/><rect x="716" y="764" width="48" height="24"/><rect x="716" y="836" width="144" height="24"/><rect x="740" y="92" width="24" height="24"/><rect x="740" y="140" width="24" height="192"/><rect x="740" y="356" width="24" height="24"/><rect x="740" y="428" width="96" height="24"/><rect x="740" y="500" width="48" height="72"/><rect x="740" y="644" width="24" height="48"/><rect x="740" y="716" width="24" height="192"/><rect x="740" y="932" width="24" height="24"/><rect x="764" y="260" width="24" height="24"/><rect x="764" y="476" width="24" height="120"/><rect x="764" y="692" width="48" height="24"/><rect x="764" y="740" width="96" height="24"/><rect x="764" y="860" width="24" height="48"/><rect x="788" y="68" width="24" height="168"/><rect x="788" y="308" width="24" height="24"/><rect x="788" y="356" width="48" height="24"/><rect x="788" y="404" width="24" height="72"/><rect x="788" y="524" width="24" height="48"/><rect x="788" y="620" width="48" height="48"/><rect x="788" y="716" width="48" height="48"/><rect x="788" y="788" width="24" height="24"/><rect x="788" y="860" width="24" height="24"/><rect x="788" y="932" width="48" height="24"/><rect x="812" y="68" width="144" height="24"/><rect x="812" y="212" width="144" height="24"/><rect x="812" y="284" width="72" height="24"/><rect x="812" y="452" width="24" height="48"/><rect x="812" y="548" width="48" height="24"/><rect x="812" y="596" width="24" height="72"/><rect x="836" y="116" width="72" height="72"/><rect x="836" y="260" width="24" height="48"/><rect x="836" y="380" width="48" height="48"/><rect x="836" y="524" width="24" height="72"/><rect x="836" y="620" width="96" height="24"/><rect x="836" y="668" width="24" height="48"/><rect x="836" y="764" width="24" height="96"/><rect x="836" y="884" width="72" height="48"/><rect x="860" y="308" width="24" height="24"/><rect x="860" y="356" width="24" height="96"/><rect x="860" y="476" width="24" height="24"/><rect x="860" y="524" width="24" height="24"/><rect x="860" y="596" width="24" height="48"/><rect x="860" y="692" width="48" height="48"/><rect x="860" y="932" width="24" height="24"/><rect x="884" y="260" width="72" height="24"/><rect x="884" y="332" width="72" height="24"/><rect x="884" y="404" width="72" height="72"/><rect x="884" y="500" width="24" height="24"/><rect x="884" y="572" width="24" height="24"/><rect x="884" y="740" width="48" height="48"/><rect x="884" y="860" width="24" height="72"/><rect x="908" y="284" width="24" height="24"/><rect x="908" y="692" width="48" height="24"/><rect x="908" y="812" width="24" height="48"/><rect x="908" y="908" width="48" height="24"/><rect x="932" y="92" width="24" height="144"/><rect x="932" y="308" width="24" height="72"/><rect x="932" y="500" width="24" height="48"/><rect x="932" y="596" width="24" height="24"/><rect x="932" y="716" width="24" height="48"/><rect x="932" y="788" width="24" height="24"/><rect x="932" y="860" width="24" height="96"/></svg>